<mxfile host="65bd71144e">
    <diagram id="TBFXE73t01qdYtAQWQm9" name="Seite-1">
        <mxGraphModel dx="1993" dy="1578" grid="1" gridSize="10" guides="1" tooltips="1" connect="1" arrows="1" fold="1" page="1" pageScale="1" pageWidth="827" pageHeight="1169" background="#FFFFFF" math="0" shadow="0">
            <root>
                <mxCell id="0"/>
                <mxCell id="211" value="Unbenannte Ebene" parent="0"/>
                <mxCell id="1" parent="0"/>
                <mxCell id="16" style="edgeStyle=none;html=1;" parent="1" source="2" target="3" edge="1">
                    <mxGeometry relative="1" as="geometry"/>
                </mxCell>
                <mxCell id="17" style="edgeStyle=none;html=1;" parent="1" source="2" target="4" edge="1">
                    <mxGeometry relative="1" as="geometry"/>
                </mxCell>
                <mxCell id="18" style="edgeStyle=none;html=1;" parent="1" source="2" target="12" edge="1">
                    <mxGeometry relative="1" as="geometry"/>
                </mxCell>
                <mxCell id="19" style="edgeStyle=none;html=1;" parent="1" source="2" target="11" edge="1">
                    <mxGeometry relative="1" as="geometry"/>
                </mxCell>
                <mxCell id="20" style="edgeStyle=none;html=1;" parent="1" source="2" target="14" edge="1">
                    <mxGeometry relative="1" as="geometry"/>
                </mxCell>
                <mxCell id="21" style="edgeStyle=none;html=1;" parent="1" source="2" target="13" edge="1">
                    <mxGeometry relative="1" as="geometry"/>
                </mxCell>
                <mxCell id="24" value="N" style="edgeStyle=none;html=1;fontSize=14;startArrow=none;" parent="1" source="25" target="23" edge="1">
                    <mxGeometry relative="1" as="geometry"/>
                </mxCell>
                <mxCell id="28" value="N" style="edgeStyle=none;html=1;fontSize=14;startArrow=none;" parent="1" source="29" target="27" edge="1">
                    <mxGeometry relative="1" as="geometry"/>
                </mxCell>
                <mxCell id="78" value="N" style="edgeStyle=none;html=1;fontSize=14;startArrow=none;" parent="1" source="80" target="107" edge="1">
                    <mxGeometry relative="1" as="geometry">
                        <mxPoint x="30" y="568.7735849056603" as="targetPoint"/>
                    </mxGeometry>
                </mxCell>
                <mxCell id="84" value="N" style="edgeStyle=none;html=1;fontSize=14;startArrow=none;entryX=0.25;entryY=1;entryDx=0;entryDy=0;" parent="1" source="86" target="106" edge="1">
                    <mxGeometry relative="1" as="geometry">
                        <mxPoint x="642.8571428571431" y="100" as="targetPoint"/>
                    </mxGeometry>
                </mxCell>
                <mxCell id="91" value="1" style="edgeStyle=none;html=1;fontSize=14;" parent="1" source="2" target="82" edge="1">
                    <mxGeometry relative="1" as="geometry"/>
                </mxCell>
                <mxCell id="113" value="N" style="edgeStyle=none;html=1;fontSize=14;startArrow=none;" parent="1" source="114" target="112" edge="1">
                    <mxGeometry relative="1" as="geometry"/>
                </mxCell>
                <mxCell id="125" value="N" style="edgeStyle=none;html=1;fontSize=14;startArrow=none;" parent="1" source="126" target="124" edge="1">
                    <mxGeometry relative="1" as="geometry"/>
                </mxCell>
                <mxCell id="169" value="N" style="edgeStyle=none;html=1;fontSize=14;startArrow=none;" parent="1" source="170" target="168" edge="1">
                    <mxGeometry relative="1" as="geometry"/>
                </mxCell>
                <mxCell id="2" value="&lt;font style=&quot;font-size: 14px;&quot;&gt;&lt;b&gt;User&lt;/b&gt;&lt;/font&gt;" style="rounded=1;arcSize=10;whiteSpace=wrap;html=1;align=center;" parent="1" vertex="1">
                    <mxGeometry x="70" y="160" width="100" height="40" as="geometry"/>
                </mxCell>
                <mxCell id="3" value="Profiltext" style="ellipse;fillColor=#e1d5e7;strokeColor=#9673a6;" parent="1" vertex="1">
                    <mxGeometry x="270" y="40" width="130" height="40" as="geometry"/>
                </mxCell>
                <mxCell id="4" value="Profilbild" style="ellipse;whiteSpace=wrap;html=1;fillColor=#e1d5e7;strokeColor=#9673a6;" parent="1" vertex="1">
                    <mxGeometry x="125" y="40" width="130" height="40" as="geometry"/>
                </mxCell>
                <mxCell id="140" style="edgeStyle=none;html=1;fontSize=14;startArrow=none;" parent="1" source="141" target="124" edge="1">
                    <mxGeometry relative="1" as="geometry"/>
                </mxCell>
                <mxCell id="150" style="edgeStyle=none;html=1;fontSize=14;" parent="1" source="6" target="149" edge="1">
                    <mxGeometry relative="1" as="geometry"/>
                </mxCell>
                <mxCell id="6" value="&lt;font style=&quot;font-size: 14px;&quot;&gt;&lt;b&gt;Schlagwort&lt;/b&gt;&lt;/font&gt;" style="rounded=1;arcSize=10;whiteSpace=wrap;html=1;align=center;" parent="1" vertex="1">
                    <mxGeometry x="827" y="160" width="100" height="40" as="geometry"/>
                </mxCell>
                <mxCell id="11" value="Username" style="ellipse;fillColor=#f8cecc;strokeColor=#b85450;" parent="1" vertex="1">
                    <mxGeometry x="-140" y="100" width="130" height="40" as="geometry"/>
                </mxCell>
                <mxCell id="12" value="Homepage" style="ellipse;fillColor=#e1d5e7;strokeColor=#9673a6;" parent="1" vertex="1">
                    <mxGeometry x="-40" y="40" width="130" height="40" as="geometry"/>
                </mxCell>
                <mxCell id="13" value="Passwort" style="ellipse;fillColor=#f8cecc;strokeColor=#b85450;" parent="1" vertex="1">
                    <mxGeometry x="-105" y="280" width="130" height="40" as="geometry"/>
                </mxCell>
                <mxCell id="14" value="E-Mail" style="ellipse;fillColor=#f8cecc;strokeColor=#b85450;" parent="1" vertex="1">
                    <mxGeometry x="-130" y="200" width="130" height="40" as="geometry"/>
                </mxCell>
                <mxCell id="31" value="N" style="edgeStyle=none;html=1;fontSize=12;startArrow=none;" parent="1" source="32" target="23" edge="1">
                    <mxGeometry relative="1" as="geometry">
                        <mxPoint x="560" y="510" as="sourcePoint"/>
                    </mxGeometry>
                </mxCell>
                <mxCell id="56" value="N" style="edgeStyle=none;html=1;startArrow=none;" parent="1" source="61" target="122" edge="1">
                    <mxGeometry relative="1" as="geometry">
                        <mxPoint x="440" y="770" as="targetPoint"/>
                    </mxGeometry>
                </mxCell>
                <mxCell id="57" style="edgeStyle=none;html=1;entryX=0.985;entryY=0.725;entryDx=0;entryDy=0;entryPerimeter=0;" parent="1" source="23" target="39" edge="1">
                    <mxGeometry relative="1" as="geometry"/>
                </mxCell>
                <mxCell id="58" style="edgeStyle=none;html=1;" parent="1" source="23" target="38" edge="1">
                    <mxGeometry relative="1" as="geometry"/>
                </mxCell>
                <mxCell id="71" value="N" style="edgeStyle=none;html=1;fontSize=14;startArrow=none;" parent="1" source="73" target="123" edge="1">
                    <mxGeometry relative="1" as="geometry">
                        <mxPoint x="480.99999999999955" y="980" as="targetPoint"/>
                    </mxGeometry>
                </mxCell>
                <mxCell id="23" value="&lt;font style=&quot;font-size: 14px;&quot;&gt;&lt;b&gt;Kommentar&lt;/b&gt;&lt;/font&gt;" style="rounded=1;arcSize=10;whiteSpace=wrap;html=1;align=center;" parent="1" vertex="1">
                    <mxGeometry x="140" y="710" width="100" height="40" as="geometry"/>
                </mxCell>
                <mxCell id="26" value="1" style="edgeStyle=none;html=1;fontSize=14;endArrow=none;" parent="1" source="2" target="25" edge="1">
                    <mxGeometry relative="1" as="geometry">
                        <mxPoint x="310" y="360" as="sourcePoint"/>
                        <mxPoint x="310" y="530" as="targetPoint"/>
                    </mxGeometry>
                </mxCell>
                <mxCell id="25" value="&lt;font style=&quot;font-size: 12px;&quot;&gt;schreibt&lt;/font&gt;" style="shape=rhombus;perimeter=rhombusPerimeter;whiteSpace=wrap;html=1;align=center;fontSize=14;fillColor=#f5f5f5;strokeColor=#666666;fontColor=#333333;" parent="1" vertex="1">
                    <mxGeometry x="210" y="370" width="100" height="50" as="geometry"/>
                </mxCell>
                <mxCell id="43" style="edgeStyle=none;html=1;" parent="1" source="27" target="36" edge="1">
                    <mxGeometry relative="1" as="geometry"/>
                </mxCell>
                <mxCell id="44" style="edgeStyle=none;html=1;" parent="1" source="27" target="37" edge="1">
                    <mxGeometry relative="1" as="geometry"/>
                </mxCell>
                <mxCell id="45" style="edgeStyle=none;html=1;" parent="1" source="27" target="42" edge="1">
                    <mxGeometry relative="1" as="geometry"/>
                </mxCell>
                <mxCell id="46" value="N" style="edgeStyle=none;html=1;startArrow=none;" parent="1" source="47" target="123" edge="1">
                    <mxGeometry relative="1" as="geometry">
                        <mxPoint x="504.99999999999955" y="980" as="targetPoint"/>
                    </mxGeometry>
                </mxCell>
                <mxCell id="55" value="N" style="edgeStyle=none;html=1;startArrow=none;" parent="1" source="63" target="122" edge="1">
                    <mxGeometry relative="1" as="geometry">
                        <mxPoint x="550" y="750" as="targetPoint"/>
                    </mxGeometry>
                </mxCell>
                <mxCell id="129" value="N" style="edgeStyle=none;html=1;fontSize=14;startArrow=none;" parent="1" source="131" target="124" edge="1">
                    <mxGeometry relative="1" as="geometry"/>
                </mxCell>
                <mxCell id="135" value="N" style="edgeStyle=none;html=1;fontSize=14;startArrow=none;" parent="1" source="136" target="124" edge="1">
                    <mxGeometry relative="1" as="geometry">
                        <mxPoint x="949.9999999999995" y="449.9999999999998" as="targetPoint"/>
                    </mxGeometry>
                </mxCell>
                <mxCell id="27" value="&lt;font style=&quot;font-size: 14px;&quot;&gt;&lt;b&gt;Post&lt;/b&gt;&lt;/font&gt;" style="rounded=1;arcSize=10;whiteSpace=wrap;html=1;align=center;" parent="1" vertex="1">
                    <mxGeometry x="640" y="540" width="100" height="40" as="geometry"/>
                </mxCell>
                <mxCell id="30" value="1" style="edgeStyle=none;html=1;fontSize=14;endArrow=none;" parent="1" source="2" target="29" edge="1">
                    <mxGeometry relative="1" as="geometry">
                        <mxPoint x="325.2380952380952" y="360" as="sourcePoint"/>
                        <mxPoint x="454.7619047619048" y="530" as="targetPoint"/>
                    </mxGeometry>
                </mxCell>
                <mxCell id="29" value="&lt;font style=&quot;font-size: 12px;&quot;&gt;schreibt&lt;/font&gt;" style="shape=rhombus;perimeter=rhombusPerimeter;whiteSpace=wrap;html=1;align=center;fontSize=14;fillColor=#f5f5f5;strokeColor=#666666;fontColor=#333333;" parent="1" vertex="1">
                    <mxGeometry x="320" y="330" width="100" height="50" as="geometry"/>
                </mxCell>
                <mxCell id="33" value="1" style="edgeStyle=none;html=1;fontSize=12;endArrow=none;" parent="1" source="32" target="27" edge="1">
                    <mxGeometry relative="1" as="geometry">
                        <mxPoint x="230" y="550" as="sourcePoint"/>
                        <mxPoint x="460" y="550" as="targetPoint"/>
                    </mxGeometry>
                </mxCell>
                <mxCell id="32" value="hat" style="shape=rhombus;perimeter=rhombusPerimeter;whiteSpace=wrap;html=1;align=center;fontSize=12;fillColor=#f5f5f5;strokeColor=#666666;fontColor=#333333;" parent="1" vertex="1">
                    <mxGeometry x="470" y="540" width="80" height="50" as="geometry"/>
                </mxCell>
                <mxCell id="36" value="Username" style="ellipse;fillColor=#f8cecc;strokeColor=#b85450;" parent="1" vertex="1">
                    <mxGeometry x="780" y="600" width="130" height="40" as="geometry"/>
                </mxCell>
                <mxCell id="37" value="Titel" style="ellipse;fillColor=#e1d5e7;strokeColor=#9673a6;" parent="1" vertex="1">
                    <mxGeometry x="760" y="660" width="130" height="40" as="geometry"/>
                </mxCell>
                <mxCell id="38" value="Text" style="ellipse;fillColor=#f8cecc;strokeColor=#b85450;" parent="1" vertex="1">
                    <mxGeometry x="-30" y="760" width="130" height="40" as="geometry"/>
                </mxCell>
                <mxCell id="39" value="Username" style="ellipse;fillColor=#f8cecc;strokeColor=#b85450;" parent="1" vertex="1">
                    <mxGeometry x="-70" y="690" width="130" height="40" as="geometry"/>
                </mxCell>
                <mxCell id="42" value="Text" style="ellipse;fillColor=#f8cecc;strokeColor=#b85450;" parent="1" vertex="1">
                    <mxGeometry x="720" y="720" width="130" height="40" as="geometry"/>
                </mxCell>
                <mxCell id="48" value="1" style="edgeStyle=none;html=1;entryX=0.5;entryY=0;entryDx=0;entryDy=0;endArrow=none;" parent="1" source="27" target="47" edge="1">
                    <mxGeometry relative="1" as="geometry">
                        <mxPoint x="690" y="580" as="sourcePoint"/>
                        <mxPoint x="690" y="960" as="targetPoint"/>
                    </mxGeometry>
                </mxCell>
                <mxCell id="47" value="enthält" style="shape=rhombus;perimeter=rhombusPerimeter;whiteSpace=wrap;html=1;align=center;fillColor=#f5f5f5;strokeColor=#666666;fontColor=#333333;" parent="1" vertex="1">
                    <mxGeometry x="640" y="770" width="110" height="40" as="geometry"/>
                </mxCell>
                <mxCell id="60" value="1" style="edgeStyle=none;html=1;endArrow=none;" parent="1" source="23" target="61" edge="1">
                    <mxGeometry relative="1" as="geometry">
                        <mxPoint x="254.375" y="580" as="sourcePoint"/>
                        <mxPoint x="455.625" y="860" as="targetPoint"/>
                    </mxGeometry>
                </mxCell>
                <mxCell id="61" value="enthält" style="shape=rhombus;perimeter=rhombusPerimeter;whiteSpace=wrap;html=1;align=center;fontSize=14;fillColor=#f5f5f5;strokeColor=#666666;fontColor=#333333;" parent="1" vertex="1">
                    <mxGeometry x="300" y="700" width="90" height="50" as="geometry"/>
                </mxCell>
                <mxCell id="62" value="1" style="edgeStyle=none;html=1;endArrow=none;" parent="1" source="27" target="63" edge="1">
                    <mxGeometry relative="1" as="geometry">
                        <mxPoint x="676.25" y="580" as="sourcePoint"/>
                        <mxPoint x="483.75" y="860" as="targetPoint"/>
                    </mxGeometry>
                </mxCell>
                <mxCell id="63" value="enthält" style="shape=rhombus;perimeter=rhombusPerimeter;whiteSpace=wrap;html=1;align=center;fontSize=14;fillColor=#f5f5f5;strokeColor=#666666;fontColor=#333333;" parent="1" vertex="1">
                    <mxGeometry x="600" y="620" width="80" height="40" as="geometry"/>
                </mxCell>
                <mxCell id="207" style="edgeStyle=none;html=1;" parent="1" source="66" target="23" edge="1">
                    <mxGeometry relative="1" as="geometry"/>
                </mxCell>
                <mxCell id="66" value="bekommt" style="shape=rhombus;perimeter=rhombusPerimeter;whiteSpace=wrap;html=1;align=center;fontSize=14;fillColor=#f5f5f5;strokeColor=#666666;fontColor=#333333;" parent="1" vertex="1">
                    <mxGeometry x="410" y="480" width="90" height="50" as="geometry"/>
                </mxCell>
                <mxCell id="209" value="1" style="edgeStyle=none;html=1;" parent="1" source="69" target="27" edge="1">
                    <mxGeometry relative="1" as="geometry"/>
                </mxCell>
                <mxCell id="69" value="bekommt" style="shape=rhombus;perimeter=rhombusPerimeter;whiteSpace=wrap;html=1;align=center;fontSize=14;fillColor=#f5f5f5;strokeColor=#666666;fontColor=#333333;" parent="1" vertex="1">
                    <mxGeometry x="710" y="410" width="80" height="50" as="geometry"/>
                </mxCell>
                <mxCell id="72" value="1" style="edgeStyle=none;html=1;fontSize=14;endArrow=none;" parent="1" source="23" target="73" edge="1">
                    <mxGeometry relative="1" as="geometry">
                        <mxPoint x="211.48148148148152" y="750" as="sourcePoint"/>
                        <mxPoint x="458.5185185185185" y="980" as="targetPoint"/>
                    </mxGeometry>
                </mxCell>
                <mxCell id="73" value="enthält" style="shape=rhombus;perimeter=rhombusPerimeter;whiteSpace=wrap;html=1;align=center;fontSize=14;fillColor=#f5f5f5;strokeColor=#666666;fontColor=#333333;" parent="1" vertex="1">
                    <mxGeometry x="310" y="850" width="90" height="50" as="geometry"/>
                </mxCell>
                <mxCell id="81" value="1" style="edgeStyle=none;html=1;fontSize=14;endArrow=none;" parent="1" source="2" target="80" edge="1">
                    <mxGeometry relative="1" as="geometry">
                        <mxPoint x="287.0000000000002" y="360" as="sourcePoint"/>
                        <mxPoint x="103" y="519.9999999999998" as="targetPoint"/>
                    </mxGeometry>
                </mxCell>
                <mxCell id="80" value="vergibt" style="shape=rhombus;perimeter=rhombusPerimeter;whiteSpace=wrap;html=1;align=center;fontSize=14;fillColor=#f5f5f5;fontColor=#333333;strokeColor=#666666;" parent="1" vertex="1">
                    <mxGeometry x="75" y="550" width="75" height="50" as="geometry"/>
                </mxCell>
                <mxCell id="92" value="N" style="edgeStyle=none;html=1;fontSize=14;" parent="1" source="82" target="107" edge="1">
                    <mxGeometry relative="1" as="geometry">
                        <mxPoint x="-15" y="544.9999999999998" as="targetPoint"/>
                    </mxGeometry>
                </mxCell>
                <mxCell id="82" value="bekommt" style="shape=rhombus;perimeter=rhombusPerimeter;whiteSpace=wrap;html=1;align=center;fontSize=14;fillColor=#f5f5f5;fontColor=#333333;strokeColor=#666666;" parent="1" vertex="1">
                    <mxGeometry x="-20" y="380" width="80" height="50" as="geometry"/>
                </mxCell>
                <mxCell id="85" value="1" style="edgeStyle=none;html=1;fontSize=14;endArrow=none;" parent="1" source="2" target="86" edge="1">
                    <mxGeometry relative="1" as="geometry">
                        <mxPoint x="360.0000000000002" y="334.31818181818176" as="sourcePoint"/>
                        <mxPoint x="700" y="295.68181818181824" as="targetPoint"/>
                    </mxGeometry>
                </mxCell>
                <mxCell id="86" value="gibt" style="shape=rhombus;perimeter=rhombusPerimeter;whiteSpace=wrap;html=1;align=center;fontSize=14;fillColor=#f5f5f5;fontColor=#333333;strokeColor=#666666;" parent="1" vertex="1">
                    <mxGeometry x="340" y="80" width="80" height="40" as="geometry"/>
                </mxCell>
                <mxCell id="95" value="1" style="edgeStyle=none;html=1;fontSize=14;" parent="1" source="93" target="94" edge="1">
                    <mxGeometry relative="1" as="geometry"/>
                </mxCell>
                <mxCell id="97" value="N" style="edgeStyle=none;html=1;fontSize=14;startArrow=none;" parent="1" source="138" target="124" edge="1">
                    <mxGeometry relative="1" as="geometry">
                        <mxPoint x="1007.1764705882351" y="464.14705882352973" as="targetPoint"/>
                    </mxGeometry>
                </mxCell>
                <mxCell id="104" value="N" style="edgeStyle=none;html=1;fontSize=14;" parent="1" source="93" target="112" edge="1">
                    <mxGeometry relative="1" as="geometry">
                        <mxPoint x="1108.4677419354844" y="275.0604838709678" as="targetPoint"/>
                    </mxGeometry>
                </mxCell>
                <mxCell id="165" style="edgeStyle=none;html=1;fontSize=14;" parent="1" source="93" target="162" edge="1">
                    <mxGeometry relative="1" as="geometry"/>
                </mxCell>
                <mxCell id="166" style="edgeStyle=none;html=1;fontSize=14;" parent="1" source="93" target="163" edge="1">
                    <mxGeometry relative="1" as="geometry"/>
                </mxCell>
                <mxCell id="167" style="edgeStyle=none;html=1;fontSize=14;" parent="1" source="93" target="164" edge="1">
                    <mxGeometry relative="1" as="geometry"/>
                </mxCell>
                <mxCell id="173" style="edgeStyle=none;html=1;fontSize=14;" parent="1" source="93" target="168" edge="1">
                    <mxGeometry relative="1" as="geometry"/>
                </mxCell>
                <mxCell id="93" value="&lt;font style=&quot;font-size: 14px;&quot;&gt;&lt;b&gt;Gruppe&lt;/b&gt;&lt;/font&gt;" style="rounded=1;arcSize=10;whiteSpace=wrap;html=1;align=center;" parent="1" vertex="1">
                    <mxGeometry x="1150" y="580" width="100" height="40" as="geometry"/>
                </mxCell>
                <mxCell id="96" value="N" style="edgeStyle=none;html=1;fontSize=14;" parent="1" target="27" edge="1">
                    <mxGeometry relative="1" as="geometry">
                        <mxPoint x="962" y="573" as="sourcePoint"/>
                    </mxGeometry>
                </mxCell>
                <mxCell id="94" value="hat" style="shape=rhombus;perimeter=rhombusPerimeter;whiteSpace=wrap;html=1;align=center;fontSize=14;fillColor=#f5f5f5;fontColor=#333333;strokeColor=#666666;" parent="1" vertex="1">
                    <mxGeometry x="960" y="550" width="70" height="50" as="geometry"/>
                </mxCell>
                <mxCell id="206" value="N" style="edgeStyle=none;html=1;" parent="1" source="106" target="66" edge="1">
                    <mxGeometry relative="1" as="geometry"/>
                </mxCell>
                <mxCell id="106" value="&lt;b&gt;Likes_Posts&lt;/b&gt;" style="shape=associativeEntity;whiteSpace=wrap;html=1;align=center;fontSize=14;fillColor=#d5e8d4;strokeColor=#82b366;" parent="1" vertex="1">
                    <mxGeometry x="460" y="-140" width="140" height="60" as="geometry"/>
                </mxCell>
                <mxCell id="107" value="&lt;b&gt;Tags&lt;/b&gt;" style="shape=associativeEntity;whiteSpace=wrap;html=1;align=center;fontSize=14;fillColor=#d5e8d4;strokeColor=#82b366;" parent="1" vertex="1">
                    <mxGeometry x="-110" y="545" width="140" height="60" as="geometry"/>
                </mxCell>
                <mxCell id="112" value="&lt;b&gt;Gruppen-&lt;br&gt;mitglied&lt;/b&gt;" style="shape=associativeEntity;whiteSpace=wrap;html=1;align=center;fontSize=14;fillColor=#d5e8d4;strokeColor=#82b366;" parent="1" vertex="1">
                    <mxGeometry x="1220" y="120" width="140" height="60" as="geometry"/>
                </mxCell>
                <mxCell id="115" value="1" style="edgeStyle=none;html=1;fontSize=14;endArrow=none;" parent="1" source="2" target="114" edge="1">
                    <mxGeometry relative="1" as="geometry">
                        <mxPoint x="360.0000000000002" y="332.5" as="sourcePoint"/>
                        <mxPoint x="1040" y="230.5" as="targetPoint"/>
                    </mxGeometry>
                </mxCell>
                <mxCell id="114" value="ist" style="shape=rhombus;perimeter=rhombusPerimeter;whiteSpace=wrap;html=1;align=center;fontSize=14;fillColor=#f5f5f5;fontColor=#333333;strokeColor=#666666;" parent="1" vertex="1">
                    <mxGeometry x="1120" y="-70" width="70" height="50" as="geometry"/>
                </mxCell>
                <mxCell id="148" style="edgeStyle=none;html=1;fontSize=14;" parent="1" source="122" target="147" edge="1">
                    <mxGeometry relative="1" as="geometry"/>
                </mxCell>
                <mxCell id="122" value="&lt;font style=&quot;font-size: 14px;&quot;&gt;&lt;b&gt;Referenzlink&lt;/b&gt;&lt;/font&gt;" style="shape=associativeEntity;whiteSpace=wrap;html=1;align=center;fontSize=18;fillColor=#d5e8d4;strokeColor=#82b366;" parent="1" vertex="1">
                    <mxGeometry x="435" y="700" width="140" height="60" as="geometry"/>
                </mxCell>
                <mxCell id="123" value="&lt;b&gt;Hashtag-Bezeichnung&lt;/b&gt;" style="shape=associativeEntity;whiteSpace=wrap;html=1;align=center;fontSize=14;fillColor=#d5e8d4;strokeColor=#82b366;" parent="1" vertex="1">
                    <mxGeometry x="435" y="970" width="140" height="60" as="geometry"/>
                </mxCell>
                <mxCell id="124" value="&lt;b&gt;Schlagwort_&lt;br&gt;bezeichnung&lt;/b&gt;" style="shape=associativeEntity;whiteSpace=wrap;html=1;align=center;fontSize=14;fillColor=#d5e8d4;strokeColor=#82b366;" parent="1" vertex="1">
                    <mxGeometry x="810" y="330" width="140" height="60" as="geometry"/>
                </mxCell>
                <mxCell id="127" value="1" style="edgeStyle=none;html=1;fontSize=14;endArrow=none;" parent="1" source="2" target="126" edge="1">
                    <mxGeometry relative="1" as="geometry">
                        <mxPoint x="360.00000000000045" y="341.7543859649122" as="sourcePoint"/>
                        <mxPoint x="809.9999999999995" y="357.54385964912285" as="targetPoint"/>
                    </mxGeometry>
                </mxCell>
                <mxCell id="126" value="sucht aus" style="html=1;whiteSpace=wrap;aspect=fixed;shape=isoRectangle;fontSize=14;fillColor=#f5f5f5;fontColor=#333333;strokeColor=#666666;" parent="1" vertex="1">
                    <mxGeometry x="540" y="330" width="90" height="54" as="geometry"/>
                </mxCell>
                <mxCell id="130" value="1" style="edgeStyle=none;html=1;fontSize=14;endArrow=none;entryX=0.221;entryY=0.74;entryDx=0;entryDy=0;entryPerimeter=0;" parent="1" source="27" target="131" edge="1">
                    <mxGeometry relative="1" as="geometry">
                        <mxPoint x="711.1133970712813" y="539.9999999999998" as="sourcePoint"/>
                        <mxPoint x="864.4599999999996" y="394.74000000000024" as="targetPoint"/>
                    </mxGeometry>
                </mxCell>
                <mxCell id="131" value="bekommt" style="html=1;whiteSpace=wrap;aspect=fixed;shape=isoRectangle;fontSize=14;fillColor=#f5f5f5;fontColor=#333333;strokeColor=#666666;" parent="1" vertex="1">
                    <mxGeometry x="765" y="460" width="75" height="45" as="geometry"/>
                </mxCell>
                <mxCell id="137" value="1" style="edgeStyle=none;html=1;fontSize=14;endArrow=none;" parent="1" source="27" target="136" edge="1">
                    <mxGeometry relative="1" as="geometry">
                        <mxPoint x="949.9999999999995" y="449.9999999999998" as="targetPoint"/>
                        <mxPoint x="737.272727272727" y="539.9999999999998" as="sourcePoint"/>
                    </mxGeometry>
                </mxCell>
                <mxCell id="136" value="bekommt" style="html=1;whiteSpace=wrap;aspect=fixed;shape=isoRectangle;fontSize=14;fillColor=#f5f5f5;fontColor=#333333;strokeColor=#666666;" parent="1" vertex="1">
                    <mxGeometry x="860" y="460" width="75" height="45" as="geometry"/>
                </mxCell>
                <mxCell id="139" value="1" style="edgeStyle=none;html=1;fontSize=14;endArrow=none;" parent="1" source="93" target="138" edge="1">
                    <mxGeometry relative="1" as="geometry">
                        <mxPoint x="1007.1764705882351" y="464.14705882352973" as="targetPoint"/>
                        <mxPoint x="1171.612903225806" y="579.9999999999998" as="sourcePoint"/>
                    </mxGeometry>
                </mxCell>
                <mxCell id="138" value="bekommt" style="html=1;whiteSpace=wrap;aspect=fixed;shape=isoRectangle;fontSize=14;fillColor=#f5f5f5;fontColor=#333333;strokeColor=#666666;" parent="1" vertex="1">
                    <mxGeometry x="990" y="460" width="75" height="45" as="geometry"/>
                </mxCell>
                <mxCell id="142" value="" style="edgeStyle=none;html=1;fontSize=14;endArrow=none;" parent="1" source="6" target="141" edge="1">
                    <mxGeometry relative="1" as="geometry">
                        <mxPoint x="879.9999999999995" y="100" as="sourcePoint"/>
                        <mxPoint x="879.9999999999995" y="330" as="targetPoint"/>
                    </mxGeometry>
                </mxCell>
                <mxCell id="141" value="wird zugeordnet" style="shape=rhombus;perimeter=rhombusPerimeter;whiteSpace=wrap;html=1;align=center;fontSize=14;fillColor=#f5f5f5;fontColor=#333333;strokeColor=#666666;" parent="1" vertex="1">
                    <mxGeometry x="807" y="220" width="140" height="70" as="geometry"/>
                </mxCell>
                <mxCell id="144" value="#name" style="ellipse;fillColor=#f8cecc;strokeColor=#b85450;" parent="1" vertex="1">
                    <mxGeometry x="240" y="1140" width="130" height="40" as="geometry"/>
                </mxCell>
                <mxCell id="147" value="Link" style="ellipse;fillColor=#f8cecc;strokeColor=#b85450;" parent="1" vertex="1">
                    <mxGeometry x="440" y="810" width="130" height="40" as="geometry"/>
                </mxCell>
                <mxCell id="149" value="Schlagwort" style="ellipse;fillColor=#f8cecc;strokeColor=#b85450;" parent="1" vertex="1">
                    <mxGeometry x="980" y="160" width="130" height="40" as="geometry"/>
                </mxCell>
                <mxCell id="162" value="Name" style="ellipse;fillColor=#f8cecc;strokeColor=#b85450;" parent="1" vertex="1">
                    <mxGeometry x="1030" y="670" width="130" height="40" as="geometry"/>
                </mxCell>
                <mxCell id="163" value="Gruppenbild" style="ellipse;fillColor=#e1d5e7;strokeColor=#9673a6;" parent="1" vertex="1">
                    <mxGeometry x="1140" y="710" width="130" height="40" as="geometry"/>
                </mxCell>
                <mxCell id="164" value="Beschreibung" style="ellipse;fillColor=#e1d5e7;strokeColor=#9673a6;" parent="1" vertex="1">
                    <mxGeometry x="1260" y="670" width="130" height="40" as="geometry"/>
                </mxCell>
                <mxCell id="168" value="Admin (User)" style="ellipse;fillColor=#f8cecc;strokeColor=#b85450;" parent="1" vertex="1">
                    <mxGeometry x="1080" y="410" width="130" height="40" as="geometry"/>
                </mxCell>
                <mxCell id="171" value="1" style="edgeStyle=none;html=1;fontSize=14;endArrow=none;" parent="1" source="2" target="170" edge="1">
                    <mxGeometry relative="1" as="geometry">
                        <mxPoint x="360.00000000000045" y="336.5716475405693" as="sourcePoint"/>
                        <mxPoint x="1121.5588362915373" y="284.3538053525417" as="targetPoint"/>
                    </mxGeometry>
                </mxCell>
                <mxCell id="210" value="1" style="edgeStyle=none;html=1;entryX=0.143;entryY=0;entryDx=0;entryDy=0;entryPerimeter=0;" parent="1" source="170" target="112" edge="1">
                    <mxGeometry relative="1" as="geometry"/>
                </mxCell>
                <mxCell id="170" value="ist" style="shape=rhombus;perimeter=rhombusPerimeter;whiteSpace=wrap;html=1;align=center;fontSize=14;fillColor=#f5f5f5;fontColor=#333333;strokeColor=#666666;" parent="1" vertex="1">
                    <mxGeometry x="1120" width="70" height="50" as="geometry"/>
                </mxCell>
                <mxCell id="197" style="edgeStyle=none;html=1;" parent="1" source="196" target="144" edge="1">
                    <mxGeometry relative="1" as="geometry"/>
                </mxCell>
                <mxCell id="199" style="edgeStyle=none;html=1;startArrow=none;" parent="1" source="200" target="123" edge="1">
                    <mxGeometry relative="1" as="geometry"/>
                </mxCell>
                <mxCell id="196" value="&lt;font style=&quot;font-size: 14px;&quot;&gt;&lt;b&gt;Hashtags&lt;/b&gt;&lt;/font&gt;" style="rounded=1;arcSize=10;whiteSpace=wrap;html=1;align=center;" parent="1" vertex="1">
                    <mxGeometry x="455" y="1140" width="100" height="40" as="geometry"/>
                </mxCell>
                <mxCell id="201" value="" style="edgeStyle=none;html=1;endArrow=none;" parent="1" source="196" target="200" edge="1">
                    <mxGeometry relative="1" as="geometry">
                        <mxPoint x="505" y="1140" as="sourcePoint"/>
                        <mxPoint x="505" y="1030" as="targetPoint"/>
                    </mxGeometry>
                </mxCell>
                <mxCell id="200" value="wird zugeordnet" style="shape=rhombus;perimeter=rhombusPerimeter;whiteSpace=wrap;html=1;align=center;fontSize=14;fillColor=#f5f5f5;fontColor=#333333;strokeColor=#666666;" parent="1" vertex="1">
                    <mxGeometry x="435" y="1050" width="140" height="70" as="geometry"/>
                </mxCell>
                <mxCell id="208" value="N" style="edgeStyle=none;html=1;entryX=0.5;entryY=0;entryDx=0;entryDy=0;" parent="1" source="202" target="69" edge="1">
                    <mxGeometry relative="1" as="geometry"/>
                </mxCell>
                <mxCell id="202" value="&lt;b&gt;Likes_Kommentare&lt;/b&gt;" style="shape=associativeEntity;whiteSpace=wrap;html=1;align=center;fontSize=14;fillColor=#d5e8d4;strokeColor=#82b366;" parent="1" vertex="1">
                    <mxGeometry x="660" y="-170" width="140" height="60" as="geometry"/>
                </mxCell>
                <mxCell id="203" value="N" style="edgeStyle=none;html=1;fontSize=14;startArrow=none;" parent="1" source="205" target="202" edge="1">
                    <mxGeometry relative="1" as="geometry">
                        <mxPoint x="721.06" y="104" as="targetPoint"/>
                    </mxGeometry>
                </mxCell>
                <mxCell id="204" value="1" style="edgeStyle=none;html=1;fontSize=14;endArrow=none;" parent="1" source="2" target="205" edge="1">
                    <mxGeometry relative="1" as="geometry">
                        <mxPoint x="414" y="340" as="sourcePoint"/>
                        <mxPoint x="764" y="325.68181818181824" as="targetPoint"/>
                    </mxGeometry>
                </mxCell>
                <mxCell id="205" value="gibt" style="shape=rhombus;perimeter=rhombusPerimeter;whiteSpace=wrap;html=1;align=center;fontSize=14;fillColor=#f5f5f5;fontColor=#333333;strokeColor=#666666;" parent="1" vertex="1">
                    <mxGeometry x="400" y="140" width="80" height="40" as="geometry"/>
                </mxCell>
            </root>
        </mxGraphModel>
    </diagram>
</mxfile>